<svg width="185" height="37" viewBox="0 0 185 37" fill="none" xmlns="http://www.w3.org/2000/svg">
<path d="M2.02344 6.81589H9.06445C10.5775 6.81589 11.8672 7.04375 12.9336 7.49948C14 7.95521 14.8158 8.62969 15.3809 9.52292C15.9551 10.407 16.2422 11.5008 16.2422 12.8042C16.2422 13.7977 16.0599 14.6727 15.6953 15.4292C15.3307 16.1857 14.8158 16.8237 14.1504 17.3432C13.485 17.8536 12.6921 18.2501 11.7715 18.5327L10.7324 19.0385H4.40234L4.375 16.3178H9.11914C9.93945 16.3178 10.623 16.172 11.1699 15.8803C11.7168 15.5887 12.127 15.1922 12.4004 14.6909C12.6829 14.1805 12.8242 13.6063 12.8242 12.9682C12.8242 12.2755 12.6875 11.674 12.4141 11.1635C12.1497 10.644 11.7396 10.2475 11.1836 9.97409C10.6276 9.69154 9.92122 9.55026 9.06445 9.55026H5.45508V26.7221H2.02344V6.81589ZM13.3848 26.7221L8.70898 17.7807L12.3047 17.7671L17.0488 26.5444V26.7221H13.3848ZM35.5332 16.2221V17.3159C35.5332 18.8198 35.3372 20.1688 34.9453 21.3628C34.5534 22.5568 33.9928 23.573 33.2637 24.4116C32.5436 25.2501 31.6777 25.8927 30.666 26.3393C29.6543 26.7768 28.5332 26.9956 27.3027 26.9956C26.0814 26.9956 24.9648 26.7768 23.9531 26.3393C22.9505 25.8927 22.0801 25.2501 21.3418 24.4116C20.6035 23.573 20.0293 22.5568 19.6191 21.3628C19.2181 20.1688 19.0176 18.8198 19.0176 17.3159V16.2221C19.0176 14.7182 19.2181 13.3738 19.6191 12.1889C20.0202 10.9949 20.5853 9.97865 21.3145 9.14011C22.0527 8.29245 22.9232 7.64987 23.9258 7.21237C24.9375 6.76576 26.054 6.54245 27.2754 6.54245C28.5059 6.54245 29.627 6.76576 30.6387 7.21237C31.6504 7.64987 32.5208 8.29245 33.25 9.14011C33.9792 9.97865 34.5397 10.9949 34.9316 12.1889C35.3327 13.3738 35.5332 14.7182 35.5332 16.2221ZM32.1016 17.3159V16.1948C32.1016 15.0828 31.9922 14.103 31.7734 13.2553C31.5638 12.3986 31.2493 11.6831 30.8301 11.1089C30.4199 10.5255 29.9141 10.088 29.3125 9.79636C28.7109 9.49557 28.0319 9.34518 27.2754 9.34518C26.5189 9.34518 25.8444 9.49557 25.252 9.79636C24.6595 10.088 24.1536 10.5255 23.7344 11.1089C23.3242 11.6831 23.0098 12.3986 22.791 13.2553C22.5723 14.103 22.4629 15.0828 22.4629 16.1948V17.3159C22.4629 18.4279 22.5723 19.4122 22.791 20.269C23.0098 21.1258 23.3288 21.8504 23.748 22.4428C24.1764 23.0262 24.6868 23.4682 25.2793 23.769C25.8717 24.0607 26.5462 24.2065 27.3027 24.2065C28.0684 24.2065 28.7474 24.0607 29.3398 23.769C29.9323 23.4682 30.4336 23.0262 30.8438 22.4428C31.2539 21.8504 31.5638 21.1258 31.7734 20.269C31.9922 19.4122 32.1016 18.4279 32.1016 17.3159ZM49.4375 21.5952C49.4375 21.185 49.3737 20.8204 49.2461 20.5014C49.1276 20.1824 48.9134 19.8908 48.6035 19.6264C48.2936 19.3621 47.8561 19.1069 47.291 18.8608C46.735 18.6056 46.0241 18.3458 45.1582 18.0815C44.2103 17.7898 43.3353 17.4663 42.5332 17.1108C41.7402 16.7462 41.0475 16.327 40.4551 15.853C39.8626 15.3699 39.4023 14.8185 39.0742 14.1987C38.7461 13.5698 38.582 12.8452 38.582 12.0249C38.582 11.2137 38.7507 10.4754 39.0879 9.81003C39.4342 9.14466 39.9219 8.57044 40.5508 8.08737C41.1888 7.59518 41.9408 7.21693 42.8066 6.95261C43.6725 6.67917 44.6296 6.54245 45.6777 6.54245C47.1543 6.54245 48.4258 6.81589 49.4922 7.36276C50.5677 7.90964 51.3926 8.64336 51.9668 9.56393C52.5501 10.4845 52.8418 11.5008 52.8418 12.6128H49.4375C49.4375 11.9565 49.2962 11.3777 49.0137 10.8764C48.7402 10.366 48.321 9.96498 47.7559 9.67331C47.1999 9.38164 46.4935 9.23581 45.6367 9.23581C44.8255 9.23581 44.151 9.35886 43.6133 9.60495C43.0755 9.85104 42.6745 10.1837 42.4102 10.603C42.1458 11.0223 42.0137 11.4962 42.0137 12.0249C42.0137 12.3986 42.1003 12.7404 42.2734 13.0503C42.4466 13.351 42.7109 13.6336 43.0664 13.8979C43.4219 14.1531 43.8685 14.3947 44.4062 14.6225C44.944 14.8504 45.5775 15.0691 46.3066 15.2788C47.4095 15.6069 48.3711 15.9715 49.1914 16.3725C50.0117 16.7645 50.6953 17.2111 51.2422 17.7124C51.7891 18.2137 52.1992 18.7833 52.4727 19.4214C52.7461 20.0503 52.8828 20.7658 52.8828 21.5678C52.8828 22.4064 52.7142 23.1629 52.377 23.8374C52.0397 24.5027 51.5566 25.0724 50.9277 25.5464C50.3079 26.0112 49.5605 26.3712 48.6855 26.6264C47.8197 26.8725 46.8535 26.9956 45.7871 26.9956C44.8301 26.9956 43.8867 26.868 42.957 26.6128C42.0365 26.3576 41.1979 25.9702 40.4414 25.4507C39.6849 24.922 39.0833 24.2658 38.6367 23.4819C38.1901 22.6889 37.9668 21.7638 37.9668 20.7065H41.3984C41.3984 21.3536 41.5078 21.9051 41.7266 22.3608C41.9544 22.8165 42.2689 23.1902 42.6699 23.4819C43.071 23.7645 43.5358 23.9741 44.0645 24.1108C44.6022 24.2475 45.1764 24.3159 45.7871 24.3159C46.5892 24.3159 47.2591 24.202 47.7969 23.9741C48.3438 23.7462 48.7539 23.4272 49.0273 23.0171C49.3008 22.6069 49.4375 22.1329 49.4375 21.5952ZM68.9473 24.0014V26.7221H58.3789V24.0014H68.9473ZM59.3496 6.81589V26.7221H55.918V6.81589H59.3496ZM67.5664 15.1284V17.8081H58.3789V15.1284H67.5664ZM68.8789 6.81589V9.55026H58.3789V6.81589H68.8789ZM86.2832 19.2983H81.1016V16.5776H86.2832C87.1855 16.5776 87.9147 16.4318 88.4707 16.1401C89.0267 15.8484 89.4323 15.4474 89.6875 14.937C89.9518 14.4174 90.084 13.825 90.084 13.1596C90.084 12.5307 89.9518 11.9428 89.6875 11.396C89.4323 10.84 89.0267 10.3934 88.4707 10.0561C87.9147 9.71888 87.1855 9.55026 86.2832 9.55026H82.1543V26.7221H78.7227V6.81589H86.2832C87.8236 6.81589 89.1315 7.08932 90.207 7.6362C91.2917 8.17396 92.1165 8.92136 92.6816 9.87839C93.2467 10.8263 93.5293 11.9109 93.5293 13.1323C93.5293 14.4174 93.2467 15.5203 92.6816 16.4409C92.1165 17.3615 91.2917 18.0678 90.207 18.56C89.1315 19.0522 87.8236 19.2983 86.2832 19.2983ZM109.635 24.0014V26.7221H99.0664V24.0014H109.635ZM100.037 6.81589V26.7221H96.6055V6.81589H100.037ZM108.254 15.1284V17.8081H99.0664V15.1284H108.254ZM109.566 6.81589V9.55026H99.0664V6.81589H109.566ZM120.9 6.81589V26.7221H117.496V6.81589H120.9ZM127.148 6.81589V9.55026H111.303V6.81589H127.148ZM136.213 9.46823L130.266 26.7221H126.67L134.162 6.81589H136.459L136.213 9.46823ZM141.189 26.7221L135.229 9.46823L134.969 6.81589H137.279L144.799 26.7221H141.189ZM140.902 19.3393V22.06H130.074V19.3393H140.902ZM159.496 24.0014V26.7221H149.502V24.0014H159.496ZM150.459 6.81589V26.7221H147.027V6.81589H150.459ZM172.621 21.5952C172.621 21.185 172.557 20.8204 172.43 20.5014C172.311 20.1824 172.097 19.8908 171.787 19.6264C171.477 19.3621 171.04 19.1069 170.475 18.8608C169.919 18.6056 169.208 18.3458 168.342 18.0815C167.394 17.7898 166.519 17.4663 165.717 17.1108C164.924 16.7462 164.231 16.327 163.639 15.853C163.046 15.3699 162.586 14.8185 162.258 14.1987C161.93 13.5698 161.766 12.8452 161.766 12.0249C161.766 11.2137 161.934 10.4754 162.271 9.81003C162.618 9.14466 163.105 8.57044 163.734 8.08737C164.372 7.59518 165.124 7.21693 165.99 6.95261C166.856 6.67917 167.813 6.54245 168.861 6.54245C170.338 6.54245 171.609 6.81589 172.676 7.36276C173.751 7.90964 174.576 8.64336 175.15 9.56393C175.734 10.4845 176.025 11.5008 176.025 12.6128H172.621C172.621 11.9565 172.48 11.3777 172.197 10.8764C171.924 10.366 171.505 9.96498 170.939 9.67331C170.383 9.38164 169.677 9.23581 168.82 9.23581C168.009 9.23581 167.335 9.35886 166.797 9.60495C166.259 9.85104 165.858 10.1837 165.594 10.603C165.329 11.0223 165.197 11.4962 165.197 12.0249C165.197 12.3986 165.284 12.7404 165.457 13.0503C165.63 13.351 165.895 13.6336 166.25 13.8979C166.605 14.1531 167.052 14.3947 167.59 14.6225C168.128 14.8504 168.761 15.0691 169.49 15.2788C170.593 15.6069 171.555 15.9715 172.375 16.3725C173.195 16.7645 173.879 17.2111 174.426 17.7124C174.973 18.2137 175.383 18.7833 175.656 19.4214C175.93 20.0503 176.066 20.7658 176.066 21.5678C176.066 22.4064 175.898 23.1629 175.561 23.8374C175.223 24.5027 174.74 25.0724 174.111 25.5464C173.492 26.0112 172.744 26.3712 171.869 26.6264C171.003 26.8725 170.037 26.9956 168.971 26.9956C168.014 26.9956 167.07 26.868 166.141 26.6128C165.22 26.3576 164.382 25.9702 163.625 25.4507C162.868 24.922 162.267 24.2658 161.82 23.4819C161.374 22.6889 161.15 21.7638 161.15 20.7065H164.582C164.582 21.3536 164.691 21.9051 164.91 22.3608C165.138 22.8165 165.452 23.1902 165.854 23.4819C166.255 23.7645 166.719 23.9741 167.248 24.1108C167.786 24.2475 168.36 24.3159 168.971 24.3159C169.773 24.3159 170.443 24.202 170.98 23.9741C171.527 23.7462 171.938 23.4272 172.211 23.0171C172.484 22.6069 172.621 22.1329 172.621 21.5952Z" fill="black"/>
</svg>
